<svg xmlns="http://www.w3.org/2000/svg" viewBox="0 0 774.2 480.1"><defs><style>.cls-1{fill:#efefef;}.cls-2{fill:#dedede;}.cls-3{fill:#121e20;}.cls-4{fill:#424143;}.cls-5{fill:#22393d;}.cls-6{fill:#fbb040;}.cls-7{fill:#e29334;}.cls-8{fill:#e0a4ab;}.cls-9{fill:#ffcdc2;}.cls-10{fill:#4358eb;}.cls-11{fill:#2c43b5;}.cls-12{fill:#7b7b7d;}.cls-13{fill:#ea7185;}.cls-14{fill:#545254;}.cls-15{fill:#221f1f;}.cls-16{fill:none;stroke:#424143;stroke-linecap:round;stroke-linejoin:round;}.cls-17{fill:#414042;}.cls-18{fill:#5dba3e;}.cls-19{fill:#449935;}.cls-20{fill:#4c9b2f;}.cls-21{fill:#eda162;}.cls-22{fill:#c6773c;}.cls-23{fill:#99582b;opacity:0.3;}.cls-24{fill:#8c8c8c;}.cls-25{fill:#999;}</style></defs><g id="Layer_2" data-name="Layer 2"><g id="Layer_1-2" data-name="Layer 1"><path class="cls-1" d="M733.4,104.44H607.34s1.77-18.39,16.93-14.15S637.48,63.55,659.49,74c17.16,8.15,29.9-22.41,42.81,1.86C714,97.8,725.56,79.2,733.4,104.44Z"/><path class="cls-1" d="M140.73,64.55H0S2,44,18.9,48.75,33.65,18.9,58.22,30.57c19.15,9.1,33.37-25,47.79,2.07C119.05,57.14,132,36.37,140.73,64.55Z"/><path class="cls-1" d="M449.74,22.8H374.42s1.06-11,10.11-8.46,7.9-16,21.05-9.73c10.25,4.87,17.86-13.4,25.58,1.1C438.14,18.83,445.06,7.71,449.74,22.8Z"/><polygon class="cls-2" points="119.29 230.77 200.35 230.77 200.35 381.92 222.73 381.92 222.73 370.09 247.91 370.09 247.91 12.5 262.66 12.5 262.66 370.09 300.65 370.09 300.65 161.65 424.16 161.65 424.16 370.09 435 370.09 435 77.62 450.06 77.62 450.06 370.09 463.63 370.09 463.63 312.62 494.93 312.62 494.93 252.23 519.43 252.23 519.43 232.4 502.08 232.4 502.08 224.95 571.15 224.95 571.15 234.41 552.44 234.41 552.44 252.23 610.35 252.23 628.65 212.58 650.77 252.23 710.66 252.23 710.66 390.46 43.07 390.46 43.07 231.63 59.23 231.63 59.23 189.12 73.01 174.38 118.95 174.38 119.29 230.77"/><rect class="cls-2" x="478.05" y="85.37" width="19.43" height="26.72"/><polygon class="cls-2" points="485.5 85.37 391.44 139.16 393.71 143.64 487.76 89.85 485.5 85.37"/><rect class="cls-2" x="198.28" y="77.66" width="19.43" height="26.72"/><polygon class="cls-2" points="307.18 22.62 208 80.89 210.26 85.37 309.45 27.1 307.18 22.62"/><path class="cls-3" d="M475.14,442.44s4.33,9.5,11.42,11.3,17.06,9.25,12.74,17.18-16.83,5.89-25.84,2.52c-5.31-2-13-3.17-18.45-3.81a6.44,6.44,0,0,1-5.66-7.17l2.24-18.71a1.3,1.3,0,0,1,1.6-1.27C457.56,443.48,469.77,446.16,475.14,442.44Z"/><path class="cls-3" d="M439.74,446.12s4.33,9.5,11.42,11.3,17.06,9.25,12.73,17.18-16.82,5.89-25.83,2.52c-5.32-2-13-3.17-18.46-3.81a6.44,6.44,0,0,1-5.65-7.17l2.24-18.71a1.3,1.3,0,0,1,1.6-1.27C422.16,447.15,434.37,449.84,439.74,446.12Z"/><path class="cls-3" d="M476.28,354.67l5.27-.77a1.87,1.87,0,0,1,2.14,1.86v8.88l-1.48.81.37,15.42a1.88,1.88,0,0,1-1.17,1.79l-8.5,3.44Z"/><path class="cls-3" d="M423.33,287.05s-5.92,4.12-19,5a3,3,0,0,0-2.69,2.25c-.64,2.63-1.2,7.1,1.22,10,0,0,2.81,19,5,19s16.93,1.41,21-7.7S423.33,287.05,423.33,287.05Z"/><path class="cls-4" d="M402.9,304.32s16.58.7,21.48-10.27C424.38,294.05,421.58,301.75,402.9,304.32Z"/><path class="cls-5" d="M421.46,296.73s-4.2,80.07-5.6,101.78-5.14,40.15-3.27,48.79c0,0,8.64,7.7,35.25,4.43l2.81-38.47-1.24,34.34s17.49,7.25,31.26,0c0,0-3.65-57.5-3.19-80.61s-.23-81.24-.23-81.24S422,286.64,421.46,296.73Z"/><polygon class="cls-3" points="460.68 292.53 460.68 310.27 463.32 309.03 463.32 292.53 460.68 292.53"/><path class="cls-4" d="M449.41,199l19.8-3.27.31,99.13s-10.12,3.73-19.45,0Z"/><path class="cls-6" d="M469.11,190.53s12.58,3.5,13.74,21c.41,6.1,3.72,15.61,3.12,24.51-1.13,16.66-6.85,32.92-6.85,32.92V296a9.54,9.54,0,0,1-9.6,3.57s-1.68-56.79-3.39-69.39-1.72-36.88-1.72-36.88Z"/><path class="cls-7" d="M458.5,178s5.13,6.85,11.05,8.57l-1.56,14-3.58-1.63S455.08,186.53,458.5,178Z"/><path class="cls-6" d="M429.87,185.93s-18.68.78-23,18.21,0,61.16,0,61.16l15.53,6.07s-2,24.74-1.93,24.74,17.13,11.58,36.05,5.29c0,0,1.24-43.88,1.86-48.08s3.34-42.32-2.91-52.06C455.43,201.26,447.45,176,429.87,185.93Z"/><polygon class="cls-4" points="435.8 174.73 442.94 174.73 437.6 181.24 435.8 174.73"/><path class="cls-7" d="M435.8,174.73l15.5,18.05s-3.85,2.49-6.5,10l-14.93-16.81S429.91,178.15,435.8,174.73Z"/><path class="cls-8" d="M438.74,175.66v3.19s12.6,13.89,16.69,22.41c0,0,7.35,1.29,9-2.33,0,0-6-11.32-3.85-20.31,0,0-16.52-21.36-20.16-17S438.74,175.66,438.74,175.66Z"/><path class="cls-9" d="M442.47,164.3s5.6,16.19,18,16.5,11.21-27.86,11.21-27.86-21.63-12.29-27.39-6.85S429.4,162,442.47,164.3Z"/><path class="cls-10" d="M541.91,214.57l-41.7-10.43c-11.83,9.49-24,37.35-24,37.35l-26.3,17A52.74,52.74,0,0,0,491,273c34.31-2.9,71.74-55.49,70.5-63.58C560.14,219.11,541.91,214.57,541.91,214.57Z"/><path class="cls-11" d="M561.52,209.43c-1.25-8.09-17.12-6.69-17.12-6.69l-2.49,11.83S560.14,219.11,561.52,209.43Z"/><path class="cls-4" d="M428.31,152.94s1.56,14.16,10.43,22.72c0,0,1.71-10.27,3.73-11.36,0,0-7.71-3.11-4.87-7.93s4.87.46,6,3.26S449,164.3,449,164.3s-4.36-9.27,2.41-17.16S430.49,143,428.31,152.94Z"/><path class="cls-5" d="M462.66,239a1.62,1.62,0,0,1,.7-2.45l26,12.28-.58,1.73Z"/><path class="cls-7" d="M446.9,148.3l-18.59,4.64s-.31-12.45,3.11-15.4S446.9,148.3,446.9,148.3Z"/><path class="cls-7" d="M476.76,147.18l4.12,7.53s-26.08,7.71-38.45-5.89C442.43,148.82,468.87,141.13,476.76,147.18Z"/><path class="cls-9" d="M430.8,253.16s25.05-3.27,31-6.38,7.78-7.94,15.4-6.85S486,246,486,246s0,1.87-3.74-.23c0,0,1.25,4-1.94,4.2,0,0,.93,3.89-2.26,4,0,0,.7,3.73-2.8,3.19s-11,0-18.6,4.05-27.32,12.74-36.2,11.66C420.43,272.84,417.34,251.22,430.8,253.16Z"/><path class="cls-6" d="M426.13,142.83s5.29-23,26.61-23.66,24,27.7,24,27.7S447,153.1,426.13,142.83Z"/><path class="cls-7" d="M430.8,253.54S423,252.33,421,271.26c-.29,2.76-2.41,4.29-5.66,3.84-4.72-.66-10.46-4.59-10.56-12.84C404.66,248.72,425.51,245.45,430.8,253.54Z"/><polygon class="cls-12" points="489.39 248.79 491.1 250.51 488.81 250.51 489.39 248.79"/><path class="cls-8" d="M466.81,160.7l2,7.24-2.28,2.1S467.89,167.15,466.81,160.7Z"/><path class="cls-4" d="M457.74,159.83a3,3,0,0,1,.61-1.61,3.14,3.14,0,0,1,1.46-1.07,2.52,2.52,0,0,1,1.89.07,2.46,2.46,0,0,1,1.25,1.21,12.43,12.43,0,0,0-1.51-.18,2.89,2.89,0,0,0-1.19.18A13.2,13.2,0,0,0,457.74,159.83Z"/><path class="cls-4" d="M471.69,158.43a9,9,0,0,1-.91.13c-.24,0-.44,0-.6,0l-.53,0a6.66,6.66,0,0,0-.86.11,1.16,1.16,0,0,1,.3-1,1.47,1.47,0,0,1,1-.46,1.66,1.66,0,0,1,1,.31A1.39,1.39,0,0,1,471.69,158.43Z"/><path class="cls-13" d="M459.46,173s1.9,1.69,6.67,1C466.13,174,461.75,177.34,459.46,173Z"/><ellipse class="cls-4" cx="460.77" cy="162.75" rx="1.31" ry="1.75"/><ellipse class="cls-4" cx="469.96" cy="162.94" rx="1.17" ry="1.56"/><path class="cls-7" d="M430.8,253.16q-.49-5.7-.64-11.42c-.12-3.8-.15-7.61-.11-11.43s.16-7.62.44-11.43c.06-.95.13-1.9.23-2.85s.18-1.9.32-2.85.26-1.89.45-2.83c.1-.47.15-.95.28-1.41l.41-1.38c-.14.95-.29,1.88-.34,2.83s-.12,1.9-.14,2.85-.08,1.89-.09,2.84-.06,1.9-.07,2.85l-.14,11.4c-.06,3.8-.09,7.61-.19,11.41S431,249.35,430.8,253.16Z"/><path class="cls-7" d="M477.17,239.93c-.4-2.2-.67-4.4-.9-6.61s-.4-4.41-.56-6.62-.26-4.43-.33-6.64-.1-4.43-.15-6.66a46.24,46.24,0,0,1,1.2,6.57c.29,2.21.47,4.42.63,6.64s.24,4.43.26,6.65S477.33,237.7,477.17,239.93Z"/><path class="cls-8" d="M482.23,245.77a32,32,0,0,1-4.64-.63c-.74-.13-1.48-.29-2.22-.41s-1.49-.24-2.32-.34a5.29,5.29,0,0,1,2.36-.72,9,9,0,0,1,2.43.14,10.82,10.82,0,0,1,2.31.7A8.09,8.09,0,0,1,482.23,245.77Z"/><path class="cls-8" d="M480.29,250c-.61-.08-1.15-.18-1.68-.3s-1.05-.24-1.56-.39-1-.32-1.53-.53A8.41,8.41,0,0,1,474,248a4.91,4.91,0,0,1,1.76-.25,6.57,6.57,0,0,1,1.7.28,6.49,6.49,0,0,1,1.59.72A3.74,3.74,0,0,1,480.29,250Z"/><path class="cls-8" d="M478,253.94a3,3,0,0,1-1.18.17,3.68,3.68,0,0,1-1.05-.19,3.78,3.78,0,0,1-1-.47,3,3,0,0,1-.85-.83,3,3,0,0,1,1.18-.18,4.13,4.13,0,0,1,1.06.19,4.49,4.49,0,0,1,1,.47A3.08,3.08,0,0,1,478,253.94Z"/><path class="cls-3" d="M459.46,321.48c1.5-.81,3-1.53,4.46-2.34a20.6,20.6,0,0,0,2.1-1.32,5.1,5.1,0,0,0,1.66-1.79,3.76,3.76,0,0,1-1.33,2.2,11.14,11.14,0,0,1-2.1,1.5A16.31,16.31,0,0,1,459.46,321.48Z"/><path class="cls-3" d="M452,406c.82-7.21,1.72-14.41,2.63-21.6l2.8-21.58,3-21.56L462,330.47l1.6-10.76-1.28,10.8L461,341.31l-2.81,21.58-3,21.56C454.17,391.63,453.14,398.81,452,406Z"/><path class="cls-3" d="M427.48,352.23c3.95,1.52,11.44,3.51,22.7,2.84a2.42,2.42,0,0,1,2.55,2.75l-1.14,8a2.42,2.42,0,0,1-1.51,1.91l-1.13.43L446.7,383.4a2.39,2.39,0,0,1-1.51,1.89c-2.68,1-9.52,2.46-21.31-2.32a2.42,2.42,0,0,1-1.49-2.59l2.31-16.18-.31-.09a2.41,2.41,0,0,1-1.6-2.95,45.32,45.32,0,0,0,1.45-6.92A2.39,2.39,0,0,1,427.48,352.23Z"/><path class="cls-5" d="M424.39,364.11s7.08,7,24.56,4C449,368.13,428.43,367.67,424.39,364.11Z"/><polygon class="cls-5" points="427.95 369.54 426.32 379.25 432.01 380.6 433.5 370.44 427.95 369.54"/><polygon class="cls-5" points="439.18 371.98 437.56 381.68 443.25 383.04 444.74 372.88 439.18 371.98"/><ellipse class="cls-5" cx="436.42" cy="363.19" rx="1.96" ry="2.37"/><path class="cls-5" d="M481.69,366.06l-4.21.94S479.35,368.05,481.69,366.06Z"/><path class="cls-8" d="M442.7,161.16a1,1,0,0,1-.45.75,1.13,1.13,0,0,1-.9.08,4.5,4.5,0,0,1-1.54-.9,3.92,3.92,0,0,1-1.1-1.46,3,3,0,0,1-.19-1.86,1.92,1.92,0,0,1,.46-.88,1.16,1.16,0,0,1,1-.37,1.59,1.59,0,0,1,.88.46,3.58,3.58,0,0,1,.6.69,4.12,4.12,0,0,1,.65,1.68,1.12,1.12,0,0,1-.19.91.43.43,0,0,1-.46,0,1.48,1.48,0,0,1-.35-.25,1.88,1.88,0,0,0,.38.18.33.33,0,0,0,.34-.07,1,1,0,0,0,0-.75,4,4,0,0,0-.73-1.48,2.21,2.21,0,0,0-1.2-.89c-.42-.05-.77.38-.87.87a3.17,3.17,0,0,0,1,2.87,4.47,4.47,0,0,0,1.34,1,1,1,0,0,0,.75.05A1,1,0,0,0,442.7,161.16Z"/><path class="cls-8" d="M442,159.08c-.24-.29-.63-.62-.84-.4a.81.81,0,0,0-.17.88,2.06,2.06,0,0,0,.63.85,1.47,1.47,0,0,0,1,.42.86.86,0,0,1-.61.08,1.72,1.72,0,0,1-.58-.23,1.88,1.88,0,0,1-.81-1,1.06,1.06,0,0,1,.39-1.26.53.53,0,0,1,.37-.06.7.7,0,0,1,.3.19A1.45,1.45,0,0,1,442,159.08Z"/><path class="cls-14" d="M305.32,168.21a21,21,0,0,1,5.89,18.26l-10.9-3.36S287.26,179,305.32,168.21Z"/><path class="cls-3" d="M265.83,437s-1.72,11.1-8.61,15.42S242,460.74,247,469.07s26.91,2.57,26.91,2.57L295,441.52l-7.45-12.94Z"/><path class="cls-5" d="M250.69,277.31s-12.85,73.77-13,79.3-3.13,15.74,1.2,24.39,26.91,56,26.91,56,13.22,4.81,21.75-8.41c0,0-22-53.83-22-54.91s14.18-30.76,14.18-40.37c0,0,4.68,33.16,5.41,51.79s4,61,4,61,13.34,9.37,22.35,0c0,0,2.6-101,2.28-119.47s-.5-45.18-.5-45.18Z"/><path class="cls-3" d="M249.51,298.71s10.91-7,7.43-17.68l-6.31-.68S250.13,293.21,249.51,298.71Z"/><polygon class="cls-3" points="270.4 283.39 270.4 302.06 275.08 302.06 275.08 282.6 270.4 283.39"/><path class="cls-3" d="M299.47,282.6s-1.65,13.94,14,17.18l-.14-16.22Z"/><path class="cls-6" d="M245.56,192.72A181.82,181.82,0,0,0,228.46,223L253,241.5s-.24,16.59-2.88,23.55-5.05,18.86,13,19.89,44.93,2.23,50.22-1.38c0,0-.44-20.33,2.4-21.87,0,0,10.1,1.17,10.82-34.6.43-21.21,1.72-30.66-15.3-40.62C311.21,186.47,264.66,166.27,245.56,192.72Z"/><path class="cls-7" d="M278,177.38a37.66,37.66,0,0,0-15.15,5.55l12.81,20.48,33-12.21c1.44-5.71-4.18-7.94-10.15-10.51Z"/><path class="cls-7" d="M320.14,261.33s5.17-1.85,5.65-10.12c0,0-3-8.5-22.16-11.39l-.91,12.26Z"/><path class="cls-8" d="M279.17,171.18s-1,5.84-2.49,7-3.12,5.61-1,25.24A130.18,130.18,0,0,1,299,185.89a2.33,2.33,0,0,0,.49-3.66,3.28,3.28,0,0,1-1.05-2.59c.16-3.37.9-10.79.9-10.79s10.07-12.33-.19-9.29S279.17,171.18,279.17,171.18Z"/><path class="cls-9" d="M272.2,141.06s-.74,9.8-1.09,14.81c-.41,5.77.05,15.78,7.14,17.82s16.54-2.49,21.38-9.69c0,0,11.62,1,8.49-11.89S272.2,141.06,272.2,141.06Z"/><path class="cls-4" d="M298.55,147.71l-.76,11.37s4.29-6.49,6.69-2.28-4.85,7.2-4.85,7.2l-.76,10.94s12.34-8.73,15.14-18.14C314,156.8,310.41,147.39,298.55,147.71Z"/><path class="cls-7" d="M272.2,136.85s-8.77,2-1.56,5.89,31.24,6.49,31.24,6.49L314,156.8a46.3,46.3,0,0,0,2.83-7.81S286.38,129.16,272.2,136.85Z"/><path class="cls-6" d="M272.2,136.85S274.72,122,290.46,120s32.5,11.18,27.82,30.28C318.28,150.31,279.05,143.34,272.2,136.85Z"/><path class="cls-7" d="M254.34,205.22c-.58,1.92-1.27,3.78-2,5.63s-1.53,3.66-2.34,5.46-1.7,3.59-2.62,5.35-1.88,3.5-3,5.19c.58-1.92,1.27-3.79,2-5.63s1.53-3.66,2.35-5.47,1.69-3.59,2.62-5.34S253.25,206.9,254.34,205.22Z"/><path class="cls-12" d="M215.41,191.62a1.49,1.49,0,0,1,2.36-.94L222,202.46h-2.53Z"/><polygon class="cls-15" points="256.28 239.88 232.13 198.55 192.84 198.55 215.31 242.41 256.28 239.88"/><path class="cls-7" d="M275.64,203.38c-1.05,6.8-2,13.62-2.89,20.43s-1.66,13.65-2.26,20.49-1,13.69-1.15,20.55c0,3.43,0,6.86.23,10.29a69,69,0,0,0,1.28,10.21c-1.92-6.64-2.41-13.61-2.56-20.49-.07-3.46,0-6.91.15-10.36s.41-6.88.7-10.32q.94-10.31,2.57-20.52C272.78,216.86,274.07,210.08,275.64,203.38Z"/><polygon class="cls-5" points="255.62 240.54 231.47 199.21 192.18 199.21 214.65 243.07 255.62 240.54"/><path class="cls-9" d="M302.72,250.08s-15.5.44-25.47-3.65-13.58-8.65-18-8.53c-3.73.1-10.68-1.15-12.81-1.56a.68.68,0,0,0-.8.57c-.16,1.12-.05,3.23,2.92,3.75,0,0-1.8,3.25,1.44,3.61,0,0-1.74,3.08.87,4.41a3,3,0,0,0,2.38,3.76A84,84,0,0,0,265,255.08c4.57.48,22.35,8.77,34,10s17.91,2.65,21.15-3.72C320.14,261.33,307.64,251.92,302.72,250.08Z"/><path class="cls-7" d="M302.72,250.08a93.22,93.22,0,0,1,.2-9.46c.21-3.15.55-6.29,1-9.41s1-6.24,1.79-9.3a56.43,56.43,0,0,1,3-9c-.74,3.07-1.36,6.14-1.93,9.22-.25,1.54-.55,3.08-.77,4.63s-.48,3.09-.71,4.64c-.47,3.1-.86,6.21-1.28,9.32S303.16,247,302.72,250.08Z"/><polygon class="cls-7" points="285.13 215.77 297.15 214.41 297.79 223.7 293.14 230.43 285.13 225.46 285.13 215.77"/><polygon class="cls-7" points="256.35 212.01 267.13 213.31 265.77 221.56 260.31 226.49 254.34 220.48 256.35 212.01"/><path class="cls-3" d="M289.14,446.12s-4.32,9.5-11.41,11.3S260.66,466.67,265,474.6s16.82,5.89,25.83,2.52,21.87-3.48,21.87-3.48V447.43a1.3,1.3,0,0,0-1.6-1.27C306.72,447.15,294.51,449.84,289.14,446.12Z"/><path class="cls-8" d="M248.53,240.66a21.42,21.42,0,0,1,3.23.43l1.5.26c.51.09,1,.14,1.64.23a3.11,3.11,0,0,1-1.6.84,4.9,4.9,0,0,1-1.79,0,5.3,5.3,0,0,1-1.64-.6A3.91,3.91,0,0,1,248.53,240.66Z"/><path class="cls-8" d="M249.91,244.36a6.4,6.4,0,0,1,1.31,0c.4,0,.78.09,1.14.16s.72.14,1.09.23.75.17,1.24.31a2.13,2.13,0,0,1-1.2.75,3.34,3.34,0,0,1-1.37,0,3.67,3.67,0,0,1-1.25-.49A2.69,2.69,0,0,1,249.91,244.36Z"/><path class="cls-8" d="M250.84,248.68a5.5,5.5,0,0,1,1.15,0,6.66,6.66,0,0,1,1,.15c.3.06.58.14.89.23l1.06.31a1.77,1.77,0,0,1-1,.76,2.52,2.52,0,0,1-1.22,0,2.81,2.81,0,0,1-1.08-.5A2.23,2.23,0,0,1,250.84,248.68Z"/><path class="cls-16" d="M233.73,202.46s2.73-3-1.55-3"/><path class="cls-16" d="M236.5,206.83s2.55-3.11-1.72-2.88"/><path class="cls-16" d="M239.53,211.79s2.62-3.06-1.66-2.91"/><path class="cls-16" d="M242.92,217.2s2.29-3.33-1.95-2.73"/><path class="cls-16" d="M245.9,222.08s2.39-3.25-1.87-2.79"/><path class="cls-16" d="M248.87,227s2.39-3.25-1.87-2.79"/><path class="cls-16" d="M251.55,231.86s2.47-3.19-1.8-2.83"/><path class="cls-16" d="M254.19,236.32s2.53-3.14-1.74-2.87"/><path class="cls-3" d="M279.77,333.3a31.21,31.21,0,0,1-1.12-4.63,28.82,28.82,0,0,1-.44-4.74,33.88,33.88,0,0,1,1.56,9.37Z"/><path class="cls-3" d="M267.87,316.24a8.07,8.07,0,0,0,1.27,1.79c.22.28.5.53.75.79l.81.72a19.46,19.46,0,0,0,3.68,2.31,34.89,34.89,0,0,0,4,1.68l2.11.64c.71.2,1.42.38,2.13.6-.73-.07-1.47-.18-2.21-.27l-2.18-.48a22.73,22.73,0,0,1-4.19-1.56,15.62,15.62,0,0,1-3.71-2.53A9,9,0,0,1,267.87,316.24Z"/><path class="cls-17" d="M286.47,152.14a1.83,1.83,0,0,1,.72-1.4,2.05,2.05,0,0,1,1.75-.37,2.36,2.36,0,0,1,1.36,1,3.64,3.64,0,0,1,.31.7,2.59,2.59,0,0,1,.06.79,4.09,4.09,0,0,1-.69-.29,6.05,6.05,0,0,1-.57-.28,6.81,6.81,0,0,0-.86-.33,2.67,2.67,0,0,0-.8-.07A9.33,9.33,0,0,0,286.47,152.14Z"/><path class="cls-17" d="M274.43,149.56a1.87,1.87,0,0,1,.72-1.41,2.05,2.05,0,0,1,1.75-.37,2.37,2.37,0,0,1,1.36,1,3.11,3.11,0,0,1,.31.7,2.55,2.55,0,0,1,.06.78,4.5,4.5,0,0,1-.69-.28c-.2-.1-.4-.18-.56-.28a7.48,7.48,0,0,0-.87-.33,2.38,2.38,0,0,0-.8-.07A9.33,9.33,0,0,0,274.43,149.56Z"/><ellipse class="cls-17" cx="287.69" cy="156.48" rx="1.44" ry="1.14" transform="translate(41.82 372.8) rotate(-69.88)"/><ellipse class="cls-17" cx="275.43" cy="153.38" rx="1.44" ry="1.14" transform="matrix(0.34, -0.94, 0.94, 0.34, 36.68, 359.26)"/><path class="cls-13" d="M284.48,166.63c-1.07-1.41-9.16-1.77-9.06-.79a6,6,0,0,0,4.28,3.59C282.17,169.72,285.1,167.45,284.48,166.63Z"/><path class="cls-8" d="M280.08,155.69a17.9,17.9,0,0,1-.54,3.41,6.1,6.1,0,0,0-.1.64s0,.17,0,.29l0,.33a3.46,3.46,0,0,0,.09.65l.26.89a1.66,1.66,0,0,1-1-.24,2,2,0,0,1-.76-.85,2.77,2.77,0,0,1-.17-.51,2.12,2.12,0,0,1-.07-.58,3.75,3.75,0,0,1,.21-1.05,7.27,7.27,0,0,1,.83-1.62A6.34,6.34,0,0,1,280.08,155.69Z"/><path class="cls-17" d="M287.42,155.21a2.17,2.17,0,0,1,2.35,1,2.21,2.21,0,0,1-2.35-1Z"/><path class="cls-17" d="M273.81,152.08a2.09,2.09,0,0,1,1.31-.24,2,2,0,0,1,1.2.57,2.1,2.1,0,0,1-1.31.24A2.06,2.06,0,0,1,273.81,152.08Z"/><path class="cls-8" d="M299.28,161.24a1,1,0,0,0,.43.73,1.15,1.15,0,0,0,.89.08,4.53,4.53,0,0,0,1.5-.88,3.87,3.87,0,0,0,1.07-1.42,3,3,0,0,0,.19-1.83,1.79,1.79,0,0,0-.45-.86,1.16,1.16,0,0,0-1-.36,1.56,1.56,0,0,0-.86.45,3.12,3.12,0,0,0-.58.68,4.08,4.08,0,0,0-.64,1.64,1.07,1.07,0,0,0,.18.88.4.4,0,0,0,.45,0,1.57,1.57,0,0,0,.35-.25,1.37,1.37,0,0,1-.37.17.3.3,0,0,1-.33-.06.94.94,0,0,1,0-.74,3.74,3.74,0,0,1,.71-1.44,2.16,2.16,0,0,1,1.17-.87c.41,0,.75.37.85.85a3.11,3.11,0,0,1-1,2.81,4.36,4.36,0,0,1-1.31.93,1,1,0,0,1-.74.05A1,1,0,0,1,299.28,161.24Z"/><path class="cls-8" d="M300,159.2c.24-.28.61-.6.82-.39a.8.8,0,0,1,.16.86,1.87,1.87,0,0,1-.61.83,1.36,1.36,0,0,1-1,.41.8.8,0,0,0,.59.08,1.75,1.75,0,0,0,.57-.23,1.87,1.87,0,0,0,.79-1,1.06,1.06,0,0,0-.38-1.23.53.53,0,0,0-.37-.06.84.84,0,0,0-.29.18A1.63,1.63,0,0,0,300,159.2Z"/><path class="cls-18" d="M365,429.68s-6.66-6.38.31-12.39C365.35,417.29,373.47,423.08,365,429.68Z"/><path class="cls-19" d="M365,437.1c-.16-1.23-.24-2.47-.3-3.71s-.08-2.47-.09-3.71,0-2.47.09-3.71.14-2.47.3-3.71c.17,1.24.25,2.48.31,3.71s.08,2.48.08,3.71,0,2.48-.08,3.71S365.21,435.87,365,437.1Z"/><path class="cls-18" d="M369.25,430.1c-.2.19.14-3.45,2.69-4.24,2.33-1.08,6.86.68,9.7,4.85a10.5,10.5,0,0,0-5.08,1C374,432.51,372,434.4,369.25,430.1Z"/><path class="cls-19" d="M365,437.1a8.47,8.47,0,0,1,1-4.15,9.22,9.22,0,0,1,7-4.76,8.52,8.52,0,0,1,4.25.57,11.12,11.12,0,0,0-4.15,0,10,10,0,0,0-3.73,1.57,10.15,10.15,0,0,0-2.84,2.89A11.59,11.59,0,0,0,365,437.1Z"/><path class="cls-18" d="M360.84,430.1c.2.19-.14-3.45-2.7-4.24-2.32-1.08-6.85.68-9.69,4.85a10.47,10.47,0,0,1,5.07,1C356.11,432.51,358.1,434.4,360.84,430.1Z"/><path class="cls-19" d="M365,437.1a11.37,11.37,0,0,0-1.55-3.84,10.3,10.3,0,0,0-6.57-4.46,11.13,11.13,0,0,0-4.15,0,8.48,8.48,0,0,1,4.24-.57,9.22,9.22,0,0,1,7,4.76A8.46,8.46,0,0,1,365,437.1Z"/><path class="cls-18" d="M728.1,477.32C709.36,475.7,685,450.5,689.31,443c7.05-12.08,19.67,7.25,25,2,5.8-5.75-29.23-25.74-18.93-45.36,2.72-5.19,12.3-6.4,15.72-.2,3.55,6.46,5.44,16.12,10.29,14.19,8.49-3.37-12.34-46.28,7.88-47.1,11.46-.46,14.3,10.09,13.67,22-.44,8.25-4.47,22.33-.92,23.82,5.47,2.3,18.49-28.26,26.24-15,9.56,16.41-29.43,39.48-25.5,47.57,2.44,5,28.41-16.83,31.14-7.11C777.5,450.64,747.56,479,728.1,477.32Z"/><path class="cls-20" d="M754.1,451.83c-2.86,1.42-5.69,2.88-8.52,4.34s-5.63,3-8.42,4.51q-3.52,1.94-7,3.91c.59-4.27,1.1-8.55,1.56-12.83s.84-8.57,1.22-12.85c0-.51.07-1,.11-1.51,2.59-2.3,5.07-4.7,7.56-7.1s5-5,7.37-7.6,4.71-5.28,6.87-8.08a43.23,43.23,0,0,0,5.61-9,57.57,57.57,0,0,1-6.52,8.22q-1.77,1.93-3.62,3.81c-1.21,1.26-2.44,2.51-3.69,3.73q-3.74,3.69-7.57,7.3c-1.9,1.81-3.84,3.59-5.78,5.37.18-2.68.35-5.36.49-8,.12-2.15.19-4.31.25-6.46s.17-4.3.17-6.46l0-6.46c0-2.15-.07-4.31-.13-6.46a160.56,160.56,0,0,0-2.55-25.71c.7,8.58.79,17.15.74,25.72l-.1,6.43-.19,6.43c-.05,2.14-.16,4.28-.24,6.43s-.18,4.28-.31,6.42q-.2,4.5-.47,9l-.36-.23c-.67-.44-1.34-.91-2-1.38-1.31-1-2.63-1.93-3.92-2.92-2.59-2-5.12-4.09-7.58-6.23s-4.87-4.39-7.08-6.78a43.4,43.4,0,0,1-3.15-3.75,15.44,15.44,0,0,1-2.33-4.3,14,14,0,0,0,1.83,4.63,36.13,36.13,0,0,0,2.82,4.12,76.86,76.86,0,0,0,6.72,7.36c2.37,2.32,4.87,4.52,7.44,6.62,1.28,1.06,2.58,2.09,3.93,3.07.68.5,1.36,1,2.06,1.46.35.23.71.46,1.09.69l.38.21c-.28,4.71-.59,9.42-.9,14.13L729,464.84c-1.77-.91-3.54-1.82-5.32-2.69-2.09-1-4.2-2.06-6.31-3.07s-4.23-2-6.37-2.95-4.28-1.91-6.45-2.79c2,1.27,4,2.5,6,3.7s4,2.38,6.06,3.54,4.06,2.3,6.12,3.42,4.07,2.22,6.12,3.3l-.69,10c.6-3.28,1.11-6.58,1.6-9.89l.22-.12c2.8-1.52,5.57-3.08,8.34-4.65s5.51-3.19,8.27-4.79,5.47-3.28,8.17-5,5.4-3.39,8-5.19C759.83,449,757,450.42,754.1,451.83Z"/><rect class="cls-21" x="89.66" y="403.78" width="68.47" height="54.22"/><rect class="cls-22" x="158.13" y="403.78" width="21.73" height="54.22"/><rect class="cls-21" x="85.38" y="391.59" width="74.96" height="12.19"/><rect class="cls-22" x="160.35" y="391.59" width="23.79" height="12.19" transform="translate(344.48 795.37) rotate(180)"/><rect class="cls-22" x="110.68" y="413.36" width="26.5" height="10.47"/><rect class="cls-23" x="89.66" y="403.78" width="90.2" height="14.81"/><rect class="cls-21" x="23.18" y="393.78" width="80.87" height="64.04"/><rect class="cls-22" x="104.05" y="393.78" width="25.66" height="64.04" transform="translate(233.76 851.59) rotate(180)"/><rect class="cls-21" x="18.13" y="379.38" width="88.53" height="14.39"/><rect class="cls-22" x="106.66" y="379.38" width="28.09" height="14.39" transform="translate(241.42 773.16) rotate(180)"/><rect class="cls-22" x="48.01" y="405.09" width="31.3" height="12.37"/><rect class="cls-23" x="23.18" y="393.78" width="106.53" height="17.5"/><rect class="cls-21" x="31.34" y="326.4" width="68.47" height="54.22"/><rect class="cls-22" x="99.82" y="326.4" width="21.73" height="54.22"/><rect class="cls-21" x="27.07" y="314.21" width="74.96" height="12.19"/><rect class="cls-22" x="102.03" y="314.21" width="23.79" height="12.19" transform="translate(227.85 640.6) rotate(180)"/><rect class="cls-22" x="52.37" y="335.97" width="26.5" height="10.47"/><rect class="cls-23" x="31.34" y="326.4" width="90.2" height="14.81"/><path class="cls-24" d="M586.44,443.65h8.29l-1.43-9.74h55.42l1.43,9.74h8.28L639.3,313c-.87-5.93-5.68-10.57-10.95-10.57h-52a8.57,8.57,0,0,0-6.58,3,10.85,10.85,0,0,0-2.3,8.74Zm61.08-17.94H592.1l-3.31-22.63h55.42Zm-7.83-53.47L643,394.88H587.59l-3.32-22.64Zm-1.2-8.19H583.07l-3.31-22.64h55.42ZM576,310.81a.43.43,0,0,1,.38-.18h52c.92,0,2.53,1.42,2.84,3.56l2.79,19H578.56l-3-20.22A2.87,2.87,0,0,1,576,310.81Z"/><path class="cls-25" d="M551.55,443.65l1.42-9.74h55.42L607,443.65h8.28l19-129.46a10.88,10.88,0,0,0-2.29-8.74,8.6,8.6,0,0,0-6.59-3h-52c-5.28,0-10.09,4.64-11,10.57L543.26,443.65Zm19-129.46c.31-2.14,1.92-3.56,2.85-3.56h52a.46.46,0,0,1,.39.18,2.87,2.87,0,0,1,.39,2.19l-3,20.22H567.72Zm-4,27.22h55.42l-3.32,22.64H563.2ZM562,372.24h55.42l-3.31,22.64H558.69Zm-4.51,30.84h55.42l-3.32,22.63H554.17Z"/></g></g></svg>